<?xml version="1.0" encoding="utf-8"?>
<!-- Generator: Adobe Illustrator 27.6.1, SVG Export Plug-In . SVG Version: 6.00 Build 0)  -->
<svg version="1.1" id="Слой_1" xmlns="http://www.w3.org/2000/svg" xmlns:xlink="http://www.w3.org/1999/xlink" x="0px" y="0px"
	 viewBox="0 0 1080 1080" style="enable-background:new 0 0 1080 1080;" xml:space="preserve">
<style type="text/css">
	.st0{fill:none;stroke:#292929;stroke-width:6.6839;stroke-linecap:round;stroke-linejoin:round;stroke-miterlimit:10.0153;}
	.st1{fill:#292929;}
	.st2{fill:#3761F3;}
</style>
<g>
	<g>
		<path class="st0" d="M577.29,115"/>
	</g>
	<g>
		<path class="st1" d="M267.47,853.44c-1.53,0-3.09-0.17-4.65-0.51c-11.44-2.56-18.65-13.91-16.1-25.36
			C276.56,693.84,399.91,596.78,540,596.78c140.37,0,260.59,93.29,292.37,226.86c2.72,11.42-4.33,22.86-15.74,25.58
			c-11.45,2.75-22.87-4.33-25.58-15.74C763.84,719.12,660.61,639.26,540,639.26c-120.37,0-226.27,83.08-251.82,197.57
			C285.98,846.72,277.2,853.44,267.47,853.44z"/>
	</g>
	<g>
		<path class="st2" d="M540,633.76c-98.62,0-178.85-80.23-178.85-178.85c0-98.61,80.23-178.85,178.85-178.85
			c98.61,0,178.85,80.23,178.85,178.85C718.85,553.53,638.61,633.76,540,633.76z M540,318.53c-75.2,0-136.38,61.17-136.38,136.37
			S464.8,591.28,540,591.28S676.37,530.1,676.37,454.9S615.2,318.53,540,318.53z"/>
	</g>
	<g>
		<path class="st1" d="M540,965c-230.08,0-417.27-187.19-417.27-417.27S309.92,130.46,540,130.46s417.27,187.18,417.27,417.27
			S770.08,965,540,965z M540,172.94c-206.66,0-374.8,168.13-374.8,374.79s168.14,374.8,374.8,374.8s374.8-168.14,374.8-374.8
			S746.66,172.94,540,172.94z"/>
	</g>
</g>
</svg>
