<?xml version="1.0" encoding="utf-8"?>
<!-- Generator: Adobe Illustrator 13.0.0, SVG Export Plug-In . SVG Version: 6.00 Build 14948)  -->
<!DOCTYPE svg PUBLIC "-//W3C//DTD SVG 1.1//EN" "http://www.w3.org/Graphics/SVG/1.1/DTD/svg11.dtd">
<svg version="1.1" id="Layer_2" xmlns="http://www.w3.org/2000/svg" xmlns:xlink="http://www.w3.org/1999/xlink" x="0px" y="0px"
	 width="500px" height="500px" viewBox="0 0 500 500" enable-background="new 0 0 500 500" xml:space="preserve">
<rect x="73.223" y="73.223" transform="matrix(0.7071 0.7071 -0.7071 0.7071 250 -103.5534)" fill="#FFFFFF" stroke="#000000" stroke-width="2" width="353.553" height="353.553"/>
<g id="XMLID_1_">
	<g>
		<polygon fill="#FFFFFF" points="467.66,250.16 250.16,467.66 32.66,250.16 		"/>
		<polygon fill="#FFFF00" points="467.66,250.16 32.66,250.16 250.16,32.66 		"/>
	</g>
	<g>
		
			<rect x="96.364" y="96.364" transform="matrix(0.7071 -0.7071 0.7071 0.7071 -103.6197 250.1602)" fill="none" stroke="#000000" stroke-width="2" width="307.591" height="307.591"/>
		<line fill="none" stroke="#000000" stroke-width="2" x1="32.66" y1="250.16" x2="467.66" y2="250.16"/>
	</g>
</g>
<path d="M239.559,179.242l-28.78,49.873c26.197,15.127,56.022,15.127,82.219,0l-28.778-49.873c-0.185,0.123-0.37,0.246-0.554,0.369
	c-0.678,0.368-1.415,0.736-2.152,1.045c-0.738,0.308-1.476,0.614-2.275,0.861c-0.799,0.246-1.538,0.43-2.338,0.614
	s-1.599,0.308-2.459,0.369c-0.799,0.062-1.66,0.122-2.521,0.122c-0.86,0-1.659-0.061-2.521-0.122
	c-0.799-0.062-1.66-0.185-2.46-0.369c-0.799-0.185-1.598-0.368-2.336-0.614c-0.799-0.247-1.538-0.492-2.275-0.861
	c-0.738-0.309-1.477-0.677-2.152-1.045C239.927,179.488,239.743,179.365,239.559,179.242z"/>
<path d="M210.778,86.691c-26.197,15.128-41.078,40.956-41.078,71.211h57.559c0-0.86,0.061-1.722,0.123-2.521
	c0.062-0.799,0.247-1.661,0.369-2.46c0.185-0.8,0.37-1.598,0.616-2.337c0.245-0.799,0.491-1.537,0.859-2.275
	c0.309-0.738,0.678-1.476,1.047-2.152c0.369-0.676,0.799-1.353,1.229-2.029c0.432-0.677,0.924-1.292,1.416-1.907
	c0.491-0.615,1.045-1.168,1.598-1.722c0.554-0.554,1.169-1.107,1.783-1.599c0.615-0.492,1.23-0.984,1.906-1.414
	c0.492-0.308,0.984-0.615,1.477-0.922L210.778,86.691z"/>
<path d="M292.997,86.691l-28.778,49.873c0.491,0.307,0.983,0.553,1.475,0.922c0.676,0.43,1.291,0.922,1.907,1.414
	c0.615,0.492,1.167,1.045,1.782,1.599c0.554,0.554,1.107,1.168,1.6,1.722c0.491,0.615,0.983,1.229,1.414,1.907
	c0.431,0.676,0.86,1.353,1.229,2.029c0.37,0.677,0.738,1.414,1.046,2.152c0.308,0.739,0.615,1.476,0.861,2.275
	c0.245,0.8,0.43,1.537,0.615,2.337c0.184,0.799,0.308,1.599,0.369,2.46c0.061,0.799,0.122,1.66,0.122,2.521h57.56
	C334.077,127.647,319.195,101.819,292.997,86.691z"/>
<circle cx="251.858" cy="157.903" r="16.419"/>
<g>
	<path stroke="#000000" d="M122.029,298.721h-8.232v-30.333h12.021c3.43,0,5.971,0.653,7.624,1.961
		c1.652,1.309,2.479,3.445,2.479,6.411c0,1.726-0.312,3.148-0.936,4.267c-0.624,1.119-1.762,2.002-3.414,2.649v0.08
		c1.185,0.217,2.143,0.668,2.876,1.355c0.732,0.688,1.129,1.544,1.192,2.568c0.062,0.512,0.125,1.645,0.187,3.397
		c0.094,1.563,0.179,2.845,0.257,3.842c0.078,0.998,0.179,1.779,0.304,2.346c0.218,0.459,0.483,0.809,0.795,1.052v0.404h-8.98
		c-0.281-0.674-0.437-1.254-0.468-1.739c-0.031-0.781-0.047-1.752-0.047-2.912c0-1.239-0.008-2.13-0.023-2.669
		c-0.016-0.539-0.055-1.024-0.117-1.456c-0.125-0.997-0.397-1.766-0.818-2.306c-0.421-0.539-1.084-0.835-1.988-0.89h-2.713V298.721z
		 M122.029,281.289h2.806c1.091,0,1.855-0.35,2.292-1.052c0.436-0.7,0.655-1.604,0.655-2.71c0-1.563-0.39-2.567-1.169-3.013
		c-0.78-0.445-2.308-0.667-4.583-0.667V281.289z"/>
	<path stroke="#000000" d="M138.258,298.721l7.67-30.333h9.916l7.624,30.333h-8.325l-1.169-5.905h-6.455l-0.982,5.905H138.258z
		 M150.887,273.888h-0.094l-2.385,13.59h4.771L150.887,273.888z"/>
	<path stroke="#000000" d="M165.994,298.721v-30.333h8.934c1.995,0,3.742,0.088,5.238,0.263c1.497,0.176,2.837,0.56,4.022,1.152
		c1.465,0.729,2.447,1.726,2.947,2.993c0.498,1.268,0.748,2.764,0.748,4.489v13.468c-0.031,3.128-1.201,5.313-3.508,6.552
		c-0.998,0.566-2.089,0.944-3.274,1.133c-1.186,0.189-2.526,0.283-4.022,0.283H165.994z M174.226,293.261c0.156,0,0.358,0,0.608,0
		c0.218,0.027,0.39,0.04,0.515,0.04c1.777,0,2.947-0.323,3.508-0.971c0.561-0.646,0.842-1.725,0.842-3.235
		c0-0.215-0.016-0.444-0.047-0.688c0-0.35,0-0.62,0-0.809v-9.909c0-0.89-0.093-1.584-0.28-2.083
		c-0.187-0.498-0.484-0.869-0.889-1.112c-0.406-0.242-0.928-0.404-1.567-0.485c-0.64-0.08-1.536-0.134-2.689-0.161V293.261z"/>
	<path stroke="#000000" d="M192.232,298.721v-30.333h8.232v30.333H192.232z"/>
	<path stroke="#000000" d="M227.03,289.055c0,3.559-0.842,6.182-2.525,7.866c-1.684,1.686-4.537,2.527-8.559,2.527
		c-4.054,0-6.938-0.849-8.653-2.548c-1.715-1.698-2.572-4.313-2.572-7.846v-12.336c0-2.912,0.974-5.149,2.923-6.714
		c1.948-1.563,4.716-2.346,8.302-2.346c3.585,0,6.33,0.782,8.231,2.346c1.902,1.564,2.853,3.802,2.853,6.714V289.055z
		 M218.799,277.204c0-0.593-0.032-1.112-0.094-1.557c-0.063-0.445-0.187-0.856-0.374-1.233c-0.187-0.378-0.476-0.688-0.865-0.931
		c-0.39-0.243-0.912-0.364-1.567-0.364c-0.624,0-1.139,0.121-1.543,0.364c-0.406,0.242-0.702,0.56-0.889,0.95
		c-0.187,0.392-0.32,0.816-0.397,1.274c-0.078,0.459-0.117,0.957-0.117,1.496v12.457c0,0.513,0.039,1.011,0.117,1.496
		c0.077,0.485,0.218,0.944,0.421,1.375c0.202,0.432,0.506,0.783,0.912,1.052c0.405,0.271,0.919,0.404,1.543,0.404
		c0.623,0,1.138-0.134,1.543-0.404c0.405-0.269,0.693-0.612,0.865-1.031c0.171-0.418,0.288-0.862,0.351-1.335
		c0.062-0.471,0.094-0.99,0.094-1.557V277.204z"/>
	<path stroke="#000000" d="M229.275,298.721l7.67-30.333h9.916l7.624,30.333h-8.325l-1.169-5.905h-6.455l-0.982,5.905H229.275z
		 M241.904,273.888h-0.094l-2.385,13.59h4.771L241.904,273.888z"/>
	<path stroke="#000000" d="M270.715,278.983v-1.941c0-1.267-0.233-2.237-0.701-2.911s-1.107-1.012-1.918-1.012
		c-1.216,0-2.051,0.257-2.502,0.769c-0.453,0.513-0.679,1.309-0.679,2.387l-0.047,15.005c0,0.89,0.234,1.563,0.702,2.021
		c0.468,0.459,1.216,0.688,2.245,0.688c0.654,0,1.192-0.134,1.613-0.404c0.421-0.269,0.732-0.612,0.936-1.031
		c0.202-0.418,0.335-0.869,0.397-1.354s0.094-1.012,0.094-1.577v-2.751h8.231v3.722c0,2.75-0.967,4.913-2.899,6.491
		c-1.934,1.577-4.928,2.365-8.98,2.365c-3.68,0-6.354-0.814-8.021-2.446c-1.668-1.631-2.502-4.038-2.502-7.22v-12.457
		c0-3.289,0.896-5.723,2.689-7.3c1.792-1.577,4.575-2.366,8.349-2.366c3.616,0,6.392,0.708,8.325,2.123
		c1.933,1.416,2.899,3.634,2.899,6.653v2.548H270.715z"/>
	<path stroke="#000000" d="M281.894,268.388h21.327v6.066h-6.642v24.267h-8.231v-24.267h-6.454V268.388z"/>
	<path stroke="#000000" d="M306.636,298.721v-30.333h8.231v30.333H306.636z"/>
	<path stroke="#000000" d="M325.392,298.721l-7.624-30.333h8.231l4.21,21.273h0.093l4.21-21.273h8.231l-7.67,30.333H325.392z"/>
	<path stroke="#000000" d="M345.409,298.721v-30.333h18.849v6.066h-10.617v5.581h10.29v6.066h-10.29v6.553h11.179v6.066H345.409z"/>
	<path fill="#ED1C24" stroke="#000000" d="M380.755,298.721v-30.75h8.345v30.75H380.755z"/>
	<path fill="#ED1C24" stroke="#000000" d="M393.936,298.721v-30.75h8.345v30.75H393.936z"/>
</g>
<g>
	<path d="M119.556,314.953v-0.48c0-0.313-0.05-0.553-0.15-0.72c-0.1-0.166-0.237-0.25-0.41-0.25c-0.26,0-0.438,0.063-0.535,0.19
		c-0.097,0.126-0.145,0.323-0.145,0.59l-0.01,3.71c0,0.22,0.05,0.387,0.15,0.5s0.26,0.17,0.48,0.17c0.14,0,0.255-0.033,0.345-0.1
		c0.09-0.067,0.156-0.152,0.2-0.256c0.043-0.103,0.072-0.215,0.085-0.335s0.02-0.25,0.02-0.39v-0.68h1.76v0.92
		c0,0.68-0.207,1.215-0.62,1.604c-0.414,0.391-1.054,0.585-1.92,0.585c-0.787,0-1.358-0.201-1.715-0.604
		c-0.356-0.403-0.535-0.998-0.535-1.785v-3.08c0-0.813,0.191-1.415,0.575-1.805c0.383-0.391,0.979-0.585,1.785-0.585
		c0.773,0,1.367,0.175,1.78,0.524c0.414,0.351,0.62,0.898,0.62,1.646v0.63H119.556z"/>
	<path d="M126.896,317.443c0,0.88-0.18,1.528-0.54,1.944c-0.36,0.417-0.97,0.625-1.83,0.625c-0.867,0-1.483-0.21-1.85-0.63
		c-0.367-0.42-0.55-1.066-0.55-1.939v-3.051c0-0.72,0.208-1.272,0.625-1.659s1.008-0.58,1.775-0.58s1.354,0.193,1.76,0.58
		s0.61,0.939,0.61,1.659V317.443z M125.136,314.513c0-0.146-0.007-0.274-0.02-0.385c-0.014-0.11-0.04-0.212-0.08-0.305
		c-0.04-0.094-0.102-0.17-0.185-0.23c-0.083-0.06-0.195-0.09-0.335-0.09c-0.133,0-0.244,0.03-0.33,0.09
		c-0.087,0.061-0.15,0.139-0.19,0.235s-0.068,0.201-0.085,0.314c-0.017,0.114-0.025,0.237-0.025,0.37v3.08
		c0,0.127,0.008,0.25,0.025,0.37s0.046,0.233,0.09,0.34c0.043,0.107,0.108,0.193,0.195,0.261c0.086,0.066,0.196,0.1,0.33,0.1
		s0.244-0.033,0.33-0.1c0.087-0.067,0.148-0.152,0.185-0.256c0.037-0.103,0.062-0.213,0.075-0.33c0.013-0.116,0.02-0.244,0.02-0.385
		V314.513z"/>
	<path d="M129.246,315.633l-0.02,0.021l0.16,4.18h-1.67v-7.5h1.81l1.36,4.19h0.03l-0.17-4.19h1.67v7.5h-1.8L129.246,315.633z"/>
	<path d="M133.066,312.333h4.56v1.5h-1.42v6h-1.76v-6h-1.38V312.333z"/>
	<path d="M138.306,319.833v-7.5h4.03v1.5h-2.27v1.38h2.2v1.5h-2.2v1.62h2.39v1.5H138.306z"/>
	<path d="M144.806,315.633l-0.02,0.021l0.16,4.18h-1.67v-7.5h1.81l1.36,4.19h0.03l-0.17-4.19h1.67v7.5h-1.8L144.806,315.633z"/>
	<path d="M148.626,312.333h4.56v1.5h-1.42v6h-1.76v-6h-1.38V312.333z"/>
	<path d="M155.196,317.323v0.529c0,0.247,0.052,0.444,0.155,0.591c0.104,0.146,0.285,0.22,0.545,0.22c0.193,0,0.34-0.073,0.44-0.22
		c0.1-0.146,0.15-0.323,0.15-0.53c0-0.253-0.07-0.453-0.21-0.6c-0.14-0.147-0.35-0.304-0.63-0.471c-0.034-0.02-0.08-0.046-0.14-0.08
		c-0.313-0.18-0.575-0.345-0.785-0.495c-0.21-0.149-0.392-0.312-0.545-0.484c-0.167-0.2-0.293-0.422-0.38-0.665
		c-0.087-0.243-0.13-0.521-0.13-0.835c0-0.693,0.195-1.222,0.585-1.585c0.39-0.363,0.931-0.545,1.625-0.545
		c0.713,0,1.265,0.203,1.655,0.609c0.39,0.407,0.585,0.947,0.585,1.62l-0.01,0.101c0,0.033,0,0.066,0,0.1h-1.62v-0.09
		c-0.007-0.146-0.017-0.271-0.03-0.37c-0.013-0.1-0.038-0.196-0.075-0.29s-0.094-0.17-0.17-0.23c-0.077-0.06-0.179-0.093-0.305-0.1
		c-0.187,0-0.33,0.044-0.43,0.13c-0.1,0.087-0.16,0.21-0.18,0.37c0,0.014,0,0.033,0,0.061c-0.007,0.02-0.01,0.039-0.01,0.06
		c0,0.174,0.045,0.318,0.135,0.435c0.09,0.117,0.225,0.239,0.405,0.365c0.133,0.087,0.343,0.214,0.63,0.38
		c0.494,0.287,0.83,0.514,1.01,0.681c0.22,0.199,0.383,0.439,0.49,0.72c0.107,0.28,0.16,0.637,0.16,1.07
		c0,0.72-0.193,1.273-0.58,1.659c-0.387,0.387-0.947,0.58-1.68,0.58c-0.387,0-0.727-0.05-1.02-0.149
		c-0.293-0.101-0.534-0.238-0.72-0.415s-0.325-0.379-0.415-0.605s-0.135-0.467-0.135-0.72v-0.8H155.196z"/>
</g>
<g>
	<path d="M127.589,333.166l1.64-7.5h2.12l1.63,7.5h-1.78l-0.25-1.46h-1.38l-0.21,1.46H127.589z M130.29,327.026h-0.02l-0.51,3.359
		h1.02L130.29,327.026z"/>
	<path d="M136.45,328.286v-0.48c0-0.313-0.05-0.553-0.15-0.72c-0.1-0.166-0.237-0.25-0.41-0.25c-0.26,0-0.438,0.063-0.535,0.19
		c-0.097,0.126-0.145,0.323-0.145,0.59l-0.01,3.71c0,0.22,0.05,0.387,0.15,0.5s0.26,0.17,0.48,0.17c0.14,0,0.255-0.033,0.345-0.1
		c0.09-0.067,0.156-0.152,0.2-0.256c0.043-0.103,0.072-0.215,0.085-0.335s0.02-0.25,0.02-0.39v-0.68h1.76v0.92
		c0,0.68-0.207,1.215-0.62,1.604c-0.414,0.391-1.054,0.585-1.92,0.585c-0.787,0-1.358-0.201-1.715-0.604
		c-0.356-0.403-0.535-0.998-0.535-1.785v-3.08c0-0.813,0.191-1.415,0.575-1.805c0.383-0.391,0.979-0.585,1.785-0.585
		c0.773,0,1.367,0.175,1.78,0.524c0.414,0.351,0.62,0.898,0.62,1.646v0.63H136.45z"/>
	<path d="M138.84,325.666h4.56v1.5h-1.42v6h-1.76v-6h-1.38V325.666z"/>
	<path d="M144.129,333.166v-7.5h1.76v7.5H144.129z"/>
	<path d="M148.14,333.166l-1.63-7.5h1.76l0.9,5.26h0.02l0.9-5.26h1.76l-1.64,7.5H148.14z"/>
	<path d="M152.469,333.166v-7.5h1.76v7.5H152.469z"/>
	<path d="M154.959,325.666h4.56v1.5h-1.42v6h-1.76v-6h-1.38V325.666z"/>
	<path d="M162.509,328.116h0.02l0.9-2.45h1.76l-1.81,4.35v3.15h-1.76v-3.15l-1.77-4.35h1.78L162.509,328.116z"/>
</g>
<g>
	<path d="M207.764,375.666h5.45v1.5h-1.697v6h-2.104v-6h-1.649V375.666z"/>
	<path d="M216.083,383.166h-2.104v-7.5h3.072c0.876,0,1.526,0.162,1.948,0.485c0.422,0.323,0.633,0.852,0.633,1.585
		c0,0.427-0.08,0.778-0.239,1.055c-0.159,0.276-0.45,0.495-0.872,0.655v0.02c0.303,0.054,0.547,0.165,0.735,0.335
		c0.187,0.17,0.289,0.382,0.305,0.635c0.016,0.127,0.032,0.407,0.048,0.841c0.024,0.387,0.046,0.703,0.066,0.949
		c0.02,0.247,0.045,0.44,0.078,0.58c0.056,0.114,0.124,0.2,0.203,0.261v0.1h-2.295c-0.072-0.167-0.112-0.31-0.12-0.43
		c-0.008-0.193-0.012-0.434-0.012-0.721c0-0.307-0.002-0.526-0.006-0.659c-0.004-0.134-0.014-0.254-0.03-0.36
		c-0.032-0.247-0.102-0.437-0.209-0.57c-0.107-0.133-0.277-0.206-0.508-0.22h-0.693V383.166z M216.083,378.856h0.717
		c0.279,0,0.474-0.087,0.585-0.261c0.112-0.173,0.167-0.396,0.167-0.67c0-0.387-0.1-0.635-0.299-0.745
		c-0.199-0.109-0.59-0.165-1.171-0.165V378.856z"/>
	<path d="M220.23,383.166l1.96-7.5h2.534l1.948,7.5h-2.127l-0.299-1.46h-1.649l-0.251,1.46H220.23z M223.457,377.026h-0.024
		l-0.609,3.359h1.219L223.457,377.026z"/>
	<path d="M229.111,378.966l-0.024,0.021l0.191,4.18h-1.996v-7.5h2.163l1.625,4.19h0.036l-0.203-4.19h1.996v7.5h-2.151
		L229.111,378.966z"/>
	<path d="M235.553,380.656v0.529c0,0.247,0.062,0.444,0.185,0.591s0.341,0.22,0.651,0.22c0.231,0,0.406-0.073,0.526-0.22
		s0.179-0.323,0.179-0.53c0-0.253-0.083-0.453-0.251-0.6c-0.167-0.147-0.418-0.304-0.753-0.471c-0.04-0.02-0.096-0.046-0.167-0.08
		c-0.375-0.18-0.687-0.345-0.938-0.495c-0.251-0.149-0.468-0.312-0.651-0.484c-0.199-0.2-0.351-0.422-0.454-0.665
		c-0.104-0.243-0.156-0.521-0.156-0.835c0-0.693,0.233-1.222,0.699-1.585c0.466-0.363,1.114-0.545,1.942-0.545
		c0.853,0,1.512,0.203,1.978,0.609c0.466,0.407,0.699,0.947,0.699,1.62l-0.012,0.101c0,0.033,0,0.066,0,0.1h-1.937v-0.09
		c-0.008-0.146-0.02-0.271-0.036-0.37c-0.016-0.1-0.046-0.196-0.09-0.29s-0.112-0.17-0.203-0.23c-0.092-0.06-0.213-0.093-0.365-0.1
		c-0.223,0-0.394,0.044-0.514,0.13c-0.12,0.087-0.191,0.21-0.215,0.37c0,0.014,0,0.033,0,0.061c-0.008,0.02-0.012,0.039-0.012,0.06
		c0,0.174,0.054,0.318,0.161,0.435c0.108,0.117,0.269,0.239,0.484,0.365c0.159,0.087,0.41,0.214,0.753,0.38
		c0.589,0.287,0.992,0.514,1.207,0.681c0.263,0.199,0.458,0.439,0.585,0.72s0.191,0.637,0.191,1.07c0,0.72-0.231,1.273-0.693,1.659
		c-0.462,0.387-1.131,0.58-2.008,0.58c-0.462,0-0.869-0.05-1.219-0.149c-0.351-0.101-0.637-0.238-0.86-0.415
		s-0.389-0.379-0.496-0.605s-0.161-0.467-0.161-0.72v-0.8H235.553z"/>
	<path d="M240.023,383.166v-7.5h2.498c0.239,0,0.472,0.007,0.699,0.02c0.227,0.014,0.46,0.042,0.699,0.086
		c0.239,0.043,0.46,0.106,0.664,0.189c0.203,0.084,0.372,0.191,0.508,0.325c0.231,0.213,0.386,0.451,0.466,0.715
		s0.12,0.568,0.12,0.915c0,0.22-0.018,0.432-0.054,0.635c-0.036,0.204-0.098,0.4-0.185,0.59c-0.088,0.19-0.209,0.36-0.365,0.511
		c-0.155,0.149-0.349,0.269-0.58,0.354c-0.247,0.101-0.508,0.164-0.783,0.19s-0.616,0.04-1.022,0.04
		c-0.231,0-0.418,0.003-0.562,0.01v2.92H240.023z M242.126,378.896c0.04,0,0.104,0,0.191,0c0.231,0,0.424-0.012,0.58-0.035
		s0.293-0.075,0.413-0.155c0.104-0.094,0.173-0.205,0.209-0.335s0.054-0.271,0.054-0.425c0-0.2-0.026-0.38-0.078-0.54
		s-0.157-0.271-0.317-0.33c-0.135-0.04-0.41-0.061-0.825-0.061h-0.227V378.896z"/>
	<path d="M252.214,380.776c0,0.88-0.215,1.528-0.645,1.944c-0.431,0.417-1.16,0.625-2.188,0.625c-1.036,0-1.773-0.21-2.211-0.63
		c-0.438-0.42-0.657-1.066-0.657-1.939v-3.051c0-0.72,0.249-1.272,0.747-1.659s1.205-0.58,2.122-0.58
		c0.916,0,1.617,0.193,2.104,0.58c0.485,0.387,0.729,0.939,0.729,1.659V380.776z M250.11,377.846c0-0.146-0.008-0.274-0.023-0.385
		s-0.048-0.212-0.096-0.305c-0.048-0.094-0.121-0.17-0.221-0.23c-0.1-0.06-0.233-0.09-0.4-0.09c-0.159,0-0.291,0.03-0.394,0.09
		c-0.104,0.061-0.18,0.139-0.228,0.235c-0.047,0.097-0.082,0.201-0.102,0.314c-0.02,0.114-0.03,0.237-0.03,0.37v3.08
		c0,0.127,0.01,0.25,0.03,0.37s0.056,0.233,0.108,0.34c0.052,0.107,0.129,0.193,0.233,0.261c0.104,0.066,0.235,0.1,0.395,0.1
		c0.159,0,0.291-0.033,0.395-0.1c0.104-0.067,0.177-0.152,0.221-0.256c0.044-0.103,0.074-0.213,0.09-0.33
		c0.016-0.116,0.023-0.244,0.023-0.385V377.846z"/>
	<path d="M255.286,383.166h-2.104v-7.5h3.071c0.877,0,1.526,0.162,1.948,0.485c0.423,0.323,0.634,0.852,0.634,1.585
		c0,0.427-0.08,0.778-0.239,1.055s-0.45,0.495-0.872,0.655v0.02c0.303,0.054,0.548,0.165,0.734,0.335
		c0.188,0.17,0.289,0.382,0.306,0.635c0.016,0.127,0.031,0.407,0.048,0.841c0.023,0.387,0.045,0.703,0.065,0.949
		c0.02,0.247,0.046,0.44,0.077,0.58c0.056,0.114,0.124,0.2,0.203,0.261v0.1h-2.294c-0.072-0.167-0.112-0.31-0.12-0.43
		c-0.008-0.193-0.012-0.434-0.012-0.721c0-0.307-0.002-0.526-0.006-0.659c-0.004-0.134-0.014-0.254-0.03-0.36
		c-0.031-0.247-0.102-0.437-0.209-0.57c-0.107-0.133-0.277-0.206-0.508-0.22h-0.693V383.166z M255.286,378.856h0.717
		c0.279,0,0.475-0.087,0.586-0.261c0.111-0.173,0.167-0.396,0.167-0.67c0-0.387-0.1-0.635-0.299-0.745
		c-0.199-0.109-0.589-0.165-1.171-0.165V378.856z"/>
	<path d="M259.374,375.666h5.45v1.5h-1.697v6h-2.104v-6h-1.649V375.666z"/>
	<path d="M268.685,383.166v-7.5h2.104v7.5H268.685z"/>
	<path d="M273.74,378.966l-0.024,0.021l0.191,4.18h-1.996v-7.5h2.164l1.625,4.19h0.036l-0.203-4.19h1.996v7.5h-2.151L273.74,378.966
		z"/>
	<path d="M278.593,383.166v-7.5h2.283c0.51,0,0.956,0.021,1.338,0.065c0.383,0.043,0.726,0.138,1.028,0.284
		c0.374,0.181,0.625,0.427,0.753,0.74c0.127,0.313,0.191,0.684,0.191,1.11v3.33c-0.008,0.773-0.307,1.313-0.896,1.62
		c-0.255,0.14-0.534,0.233-0.837,0.279c-0.303,0.047-0.646,0.07-1.027,0.07H278.593z M280.696,381.816c0.04,0,0.092,0,0.155,0
		c0.056,0.006,0.1,0.01,0.132,0.01c0.454,0,0.753-0.08,0.896-0.24s0.215-0.427,0.215-0.8c0-0.054-0.004-0.11-0.012-0.17
		c0-0.087,0-0.153,0-0.2v-2.45c0-0.22-0.024-0.392-0.072-0.515s-0.123-0.215-0.227-0.275c-0.104-0.06-0.237-0.1-0.4-0.12
		c-0.164-0.02-0.393-0.033-0.688-0.04V381.816z"/>
	<path d="M285.238,383.166v-7.5h4.816v1.5h-2.713v1.38h2.63v1.5h-2.63v1.62h2.856v1.5H285.238z"/>
	<path d="M293.999,377.946h0.023l0.956-2.28h2.104l-1.864,3.76l1.948,3.74h-2.104l-1.016-2.24h-0.024l-1.195,2.24h-2.008l1.996-3.74
		l-1.889-3.76h2.092L293.999,377.946z"/>
</g>
<g>
	<path d="M238.279,395.658h32.012v7.75c-2.174,3.184-4.051,6.582-5.631,10.199c-1.582,3.617-3.039,7.574-4.372,11.873
		c-0.791,2.521-1.421,4.98-1.89,7.378c-0.471,2.397-0.926,5.167-1.371,8.308h-12.82c0-1.488,0.271-3.389,0.815-5.704
		c0.543-2.314,1.271-4.783,2.186-7.409c0.914-2.624,1.864-5.094,2.853-7.409c0.987-2.313,1.901-4.256,2.742-5.827l5.78-10.788
		h-20.305V395.658z"/>
</g>
<g>
	<path d="M211.737,435.09l1.041,1.041l-2.801,2.801c-0.103,0.102-0.157,0.209-0.163,0.322s0.058,0.236,0.192,0.369
		c0.122,0.123,0.248,0.178,0.378,0.162c0.129-0.016,0.241-0.07,0.333-0.162l2.777-2.777l1.041,1.041l-2.688,2.688
		c-0.165,0.166-0.338,0.291-0.519,0.379c-0.181,0.086-0.375,0.123-0.583,0.113c-0.208-0.008-0.43-0.076-0.668-0.201
		c-0.237-0.125-0.486-0.318-0.747-0.578c-0.45-0.451-0.703-0.889-0.758-1.313c-0.056-0.426,0.103-0.824,0.476-1.197L211.737,435.09z
		"/>
	<path d="M214.304,440.922h-0.022l-1.974,2.162l-0.988-0.986l3.712-3.713l1.07,1.07l-1.269,2.879l0.018,0.018l1.973-2.176
		l0.988,0.988l-3.712,3.713l-1.065-1.064L214.304,440.922z"/>
	<path d="M220.255,446.201l0.238-0.238c0.155-0.154,0.244-0.303,0.267-0.445c0.024-0.141-0.016-0.264-0.119-0.365
		c-0.153-0.154-0.291-0.229-0.411-0.223s-0.246,0.074-0.377,0.207l-1.842,1.828c-0.109,0.109-0.162,0.223-0.159,0.338
		c0.002,0.115,0.07,0.236,0.2,0.367c0.083,0.082,0.167,0.135,0.253,0.154c0.087,0.021,0.168,0.02,0.245-0.008
		c0.077-0.025,0.149-0.063,0.216-0.115c0.067-0.051,0.136-0.111,0.205-0.182l0.336-0.336l1.042,1.041l-0.455,0.455
		c-0.337,0.338-0.724,0.48-1.162,0.428c-0.437-0.051-0.912-0.334-1.425-0.846c-0.465-0.465-0.705-0.902-0.715-1.314
		c-0.012-0.41,0.177-0.811,0.566-1.199l1.525-1.525c0.402-0.402,0.813-0.586,1.233-0.553c0.419,0.033,0.868,0.289,1.345,0.766
		c0.458,0.459,0.723,0.895,0.794,1.313s-0.078,0.813-0.448,1.182l-0.312,0.313L220.255,446.201z"/>
	<path d="M219.342,450.119l3.712-3.713l1.042,1.041l-2.97,2.971l1.272,1.271l-0.742,0.742L219.342,450.119z"/>
	<path d="M221.803,452.58l4.683-2.742l1.254,1.254l-2.748,4.678l-1.053-1.055l0.575-0.871l-0.816-0.816l-0.847,0.6L221.803,452.58z
		 M226.439,451.139l-0.012-0.012l-1.964,1.359l0.604,0.604L226.439,451.139z"/>
	<path d="M227.34,455.633l-0.262,0.262c-0.122,0.123-0.189,0.25-0.2,0.385c-0.012,0.133,0.06,0.277,0.213,0.43
		c0.115,0.115,0.237,0.166,0.369,0.152c0.132-0.014,0.249-0.072,0.351-0.174c0.126-0.125,0.183-0.266,0.173-0.42
		c-0.01-0.156-0.056-0.359-0.14-0.605c-0.01-0.031-0.024-0.072-0.043-0.123c-0.097-0.275-0.17-0.512-0.22-0.709
		c-0.05-0.199-0.078-0.387-0.083-0.564c0-0.195,0.035-0.381,0.104-0.553c0.069-0.172,0.181-0.336,0.336-0.49
		c0.343-0.344,0.721-0.49,1.131-0.438c0.411,0.049,0.82,0.281,1.23,0.691c0.422,0.422,0.648,0.848,0.678,1.281
		c0.029,0.432-0.123,0.814-0.456,1.146l-0.056,0.043c-0.017,0.018-0.033,0.033-0.05,0.051l-0.958-0.959l0.045-0.045
		c0.068-0.076,0.124-0.143,0.166-0.201c0.042-0.057,0.074-0.119,0.099-0.188s0.029-0.139,0.013-0.215
		c-0.015-0.074-0.059-0.15-0.131-0.229c-0.11-0.111-0.217-0.174-0.319-0.189c-0.103-0.018-0.198,0.008-0.29,0.076
		c-0.007,0.006-0.017,0.016-0.03,0.029c-0.013,0.006-0.026,0.014-0.035,0.023c-0.086,0.086-0.131,0.184-0.136,0.295
		c-0.004,0.111,0.016,0.252,0.059,0.422c0.036,0.121,0.097,0.309,0.185,0.561c0.15,0.434,0.237,0.744,0.261,0.934
		c0.031,0.229,0.009,0.443-0.066,0.645c-0.076,0.203-0.221,0.412-0.435,0.625c-0.356,0.357-0.745,0.516-1.165,0.479
		c-0.42-0.037-0.848-0.273-1.281-0.707c-0.229-0.229-0.405-0.453-0.53-0.676c-0.124-0.225-0.197-0.434-0.22-0.633
		c-0.023-0.197-0.005-0.379,0.054-0.545c0.059-0.164,0.151-0.311,0.277-0.436l0.396-0.396L227.34,455.633z"/>
	<path d="M230.298,458.59l-0.262,0.264c-0.122,0.121-0.189,0.25-0.2,0.383c-0.011,0.135,0.06,0.277,0.214,0.432
		c0.115,0.113,0.237,0.164,0.369,0.15c0.132-0.012,0.249-0.07,0.351-0.172c0.126-0.127,0.183-0.268,0.173-0.422
		c-0.01-0.156-0.056-0.357-0.14-0.605c-0.009-0.029-0.023-0.07-0.042-0.123c-0.097-0.273-0.17-0.51-0.22-0.709
		c-0.05-0.199-0.078-0.387-0.083-0.563c0-0.197,0.035-0.383,0.104-0.555c0.069-0.17,0.181-0.334,0.336-0.49
		c0.343-0.342,0.721-0.488,1.131-0.438c0.411,0.051,0.821,0.281,1.231,0.691c0.422,0.422,0.648,0.85,0.677,1.281
		c0.03,0.432-0.123,0.814-0.455,1.146l-0.056,0.045c-0.017,0.016-0.033,0.033-0.05,0.049l-0.958-0.957l0.045-0.045
		c0.068-0.076,0.124-0.145,0.166-0.201c0.042-0.057,0.074-0.121,0.099-0.188c0.025-0.068,0.029-0.141,0.013-0.215
		c-0.016-0.076-0.059-0.152-0.131-0.23c-0.11-0.109-0.217-0.174-0.319-0.189c-0.103-0.016-0.198,0.01-0.29,0.076
		c-0.007,0.008-0.017,0.018-0.03,0.029c-0.013,0.006-0.026,0.016-0.035,0.023c-0.086,0.086-0.131,0.186-0.136,0.297
		c-0.004,0.111,0.015,0.25,0.059,0.42c0.036,0.121,0.097,0.309,0.185,0.561c0.15,0.434,0.237,0.744,0.261,0.934
		c0.031,0.23,0.009,0.445-0.066,0.646c-0.076,0.203-0.221,0.41-0.435,0.625c-0.356,0.355-0.745,0.516-1.165,0.479
		c-0.42-0.037-0.848-0.273-1.281-0.707c-0.229-0.229-0.405-0.455-0.53-0.678c-0.124-0.223-0.197-0.434-0.22-0.631
		c-0.023-0.199-0.005-0.381,0.054-0.545c0.059-0.166,0.151-0.313,0.276-0.438l0.396-0.395L230.298,458.59z"/>
	<path d="M236.208,459.721l2.556,2.555l-0.619,0.619c-0.427,0.08-0.849,0.201-1.263,0.365c-0.415,0.162-0.848,0.361-1.296,0.598
		c-0.265,0.139-0.511,0.285-0.74,0.438c-0.229,0.154-0.487,0.34-0.773,0.555l-1.023-1.023c0.119-0.119,0.292-0.25,0.52-0.391
		c0.229-0.141,0.484-0.281,0.766-0.416c0.283-0.137,0.556-0.258,0.82-0.365c0.263-0.105,0.492-0.188,0.684-0.246l1.323-0.4
		l-1.621-1.621L236.208,459.721z"/>
</g>
<g>
	<path d="M454.334,279.707l-3.713-3.713l1.041-1.041l1.426,1.426l0.721-0.723l-1.424-1.426l1.041-1.041l3.711,3.713l-1.041,1.041
		l-1.543-1.544l-0.723,0.722l1.545,1.545L454.334,279.707z"/>
	<path d="M457.67,276.369l-3.713-3.712l1.467-1.467l2.73,1.654l0.014-0.013l-1.637-2.748l1.455-1.455l3.713,3.713l-0.994,0.993
		l-2.805-3.017l-0.012,0.012l2.178,3.645l-0.775,0.774l-3.627-2.194l-0.012,0.012l3.006,2.815L457.67,276.369z"/>
	<path d="M462.201,271.838l-3.713-3.712l1.043-1.042l2.969,2.971l1.273-1.271l0.742,0.742L462.201,271.838z"/>
	<path d="M464.74,266.497l-0.848-3.616l1.035-1.035l2.307,2.307l0.391-0.391l0.619,0.619l-0.391,0.39l0.707,0.708l-0.939,0.941
		l-0.709-0.709l-1.479,1.479L464.74,266.497z M466.293,265.093l-1.201-1.202l-0.012,0.012l0.48,1.924L466.293,265.093z"/>
	<path d="M467.666,261.364l-0.906,0.905l-0.568-0.568c0.135-0.135,0.256-0.273,0.363-0.418s0.195-0.294,0.26-0.449
		c0.066-0.154,0.102-0.307,0.107-0.457c0.004-0.148-0.033-0.287-0.111-0.412l0.668-0.669l3.633,3.633l-0.941,0.94L467.666,261.364z"
		/>
	<path d="M468.514,258.261l2.555-2.556l0.619,0.619c0.08,0.428,0.203,0.848,0.365,1.264c0.162,0.414,0.361,0.847,0.598,1.296
		c0.139,0.265,0.285,0.511,0.438,0.74c0.156,0.229,0.34,0.486,0.555,0.772l-1.023,1.023c-0.119-0.118-0.248-0.293-0.391-0.52
		c-0.141-0.229-0.281-0.484-0.416-0.767c-0.137-0.282-0.258-0.556-0.365-0.819c-0.105-0.264-0.188-0.492-0.244-0.684l-0.402-1.323
		l-1.619,1.62L468.514,258.261z"/>
</g>
<rect x="198" y="338.5" fill="none" stroke="#000000" stroke-width="2" width="109" height="49"/>
<line fill="none" stroke="#000000" stroke-width="2" stroke-dasharray="3" x1="160" y1="319.333" x2="385.5" y2="319.333"/>
<line fill="none" stroke="#000000" stroke-width="2" stroke-dasharray="3" x1="167" y1="332.666" x2="376" y2="332.666"/>
</svg>
