<?xml version="1.0" encoding="utf-8"?>
<!-- Generator: Adobe Illustrator 25.4.1, SVG Export Plug-In . SVG Version: 6.00 Build 0)  -->
<svg version="1.1" id="Слой_1" xmlns="http://www.w3.org/2000/svg" xmlns:xlink="http://www.w3.org/1999/xlink" x="0px" y="0px"
	 viewBox="0 0 1500 1500" style="enable-background:new 0 0 1500 1500;" xml:space="preserve">
<style type="text/css">
	.st0{fill:#153F9F;}
	.st1{fill:#2D2D2D;}
</style>
<g>
	<g>
		<path class="st0" d="M385.2,637.3L272.6,750l112.7,112.7L497.9,750L385.2,637.3z M350.7,708h68.6l20.9,20.9H329.8L350.7,708z
			 M440.2,774.1L422.7,792h-71.8l-20.6-20.9h89.1v-10.7h-67.6L331,739.6h94.5l14.7,14.8V774.1z"/>
	</g>
	<g>
		<path class="st0" d="M579.5,746.5c-7-1.8-15.2-3.3-15.2-10.3c0-6.4,5.1-8.6,12.3-8.6c7.5,0,18.6,2.7,24.1,5.8h1.3v-17.5
			c-6.2-3.1-16.3-4.6-23.3-4.6c-20,0-34.8,7.3-34.8,25.9c0,13.4,9.6,19.5,21.5,23.5c12,4.1,21.2,3.8,21.2,12.4
			c0,6.6-7.2,8.6-14.7,8.6c-9.7,0-20.7-3.1-27-6.9h-1.3v17.6c7.4,3.8,19.3,6.3,28.5,6.3c20.9,0,35.1-7.8,35.1-26.9
			C607.2,756.3,594.8,750.1,579.5,746.5z"/>
		<path class="st0" d="M671.6,735.2l-2.5,7.8H668c-4.1-5.9-11.8-9.6-21-9.6c-19.7,0-32,15-32,33.4c0,17.4,12.4,31.8,31.9,31.8
			c9.2,0,16.7-3.6,21-9.7h1l2.7,7.9h11.8v-61.5H671.6z M649.1,782.5c-9.2,0-16.6-6.8-16.6-16.5c0-10,7.4-16.6,16.5-16.6
			c9.4,0,16.9,7.3,16.9,16.6C665.8,775,658.5,782.5,649.1,782.5z"/>
		<path class="st0" d="M727.8,709.4c-18.2,0-25.7,9.3-25.7,25.4v0.5h-8v14.9h8v46.6h18.2v-46.6h15.3v-14.9h-15.3v-1.9
			c0-6.8,2.4-10.8,9.7-10.8c1.8,0,3.4,0,5.6,0.7h1.2v-12.9C733.2,709.6,730.5,709.4,727.8,709.4z"/>
		<path class="st0" d="M802.3,760.7c0-15.3-11.3-27.3-30.2-27.3c-18.4,0-32.5,12.1-32.5,32.8c0,19.9,13.7,32.5,34.3,32.5
			c10.1,0,17.6-1.6,24.3-5.3v-13H797c-6.4,2.8-12.1,4-20.4,4c-8.9,0-18.1-2.9-20.3-13.1h44.1C801.9,768.1,802.3,764.1,802.3,760.7z
			 M787,759.8h-30.6c1.9-9.5,8.5-13.4,15.9-13.4c9,0,14.4,5.7,14.7,12.5V759.8z"/>
		<path class="st1" d="M844.2,749.3c-9-2.7-18.6-5-18.6-14.8c0-9,7.5-12.5,17.2-12.5c7.6-0.1,17.8,2.5,23.7,5.8h1.2v-11.4
			c-6.6-3.4-15.7-5.1-23.7-5.1c-17.5,0-31.4,7.1-31.4,23.8c0,14.2,10.9,19.4,22.9,23.5c12.9,4.4,23.1,5,23.1,16
			c0,9.1-8.6,13-19.3,13c-9.5,0-20.1-2.8-27.3-7.1H811v11.5c7.8,4.1,19.2,6.4,28.5,6.4c18.8,0,32.3-7.3,32.3-24.8
			C871.8,758.1,859.3,753.4,844.2,749.3z"/>
		<path class="st1" d="M917.4,734.2c-10.6,0-16.9,5.3-20.1,10.8h-0.9v-33.9h-11.3v85.6h11.8v-32c0-10.3,5.9-19.8,17.5-19.8
			c10.3,0,16.8,6.7,16.8,18v33.9H943v-36.3C943,744.7,933.6,734.2,917.4,734.2z"/>
		<path class="st1" d="M965.7,708.1c-4.1,0-7.9,3.5-7.9,8c0,4.4,3.6,7.9,7.9,7.9c4.5,0,8.1-3.7,8.1-7.9
			C973.8,711.8,970,708.1,965.7,708.1z M959.8,736v60.7h11.8V736H959.8z"/>
		<path class="st1" d="M1023.9,734.2c-12.4,0-20.8,6.3-23.8,12.4h-0.9l-1.2-10.6h-8.6v85.6h11.5v-34.8h0.9
			c2.9,5.6,11,11.9,21.8,11.9c17.7,0,31.3-13.7,31.3-32.3S1042.1,734.2,1023.9,734.2z M1022.2,788.1c-12.7,0-21.5-10.7-21.5-21.7
			c0-11.4,9-21.7,21.6-21.7c11.8,0,21.1,8.9,21.1,21.7C1043.5,779.2,1034,788.1,1022.2,788.1z"/>
		<path class="st1" d="M1103.2,734.2c-12.4,0-20.7,6.3-23.8,12.4h-0.8l-1.2-10.6h-8.6v85.6h11.5v-34.8h0.9
			c2.9,5.6,11,11.9,21.8,11.9c17.7,0,31.3-13.7,31.3-32.3S1121.4,734.2,1103.2,734.2z M1101.5,788.1c-12.7,0-21.5-10.7-21.5-21.7
			c0-11.4,9-21.7,21.6-21.7c11.8,0,21.1,8.9,21.1,21.7C1122.7,779.2,1113.2,788.1,1101.5,788.1z"/>
		<path class="st1" d="M1204.1,761.9c0-16.9-11.9-27.7-29.4-27.7c-17,0-30.9,11.9-30.9,32.2c0,19.7,13.1,32.3,33.1,32.3
			c9.1,0,16.5-1.6,23.7-5.8v-8.7h-1.1c-6.9,3.6-13.1,5.1-21,5.1c-11.5,0-21.9-5.5-23.7-18.6h48
			C1203.8,768.1,1204.1,764.4,1204.1,761.9z M1193.9,761.9h-39.1c1.7-12.9,10.6-18.8,20-18.8c12.1,0,18.6,7.5,19,17.1V761.9z"/>
		<path class="st1" d="M1248.2,734.2c-9,0.1-16.1,5.2-19.5,11.4h-0.9l-1.2-9.6h-9.1v60.7h11.4v-30.1c0-13.6,8.7-21.2,19.2-21.2h1.9
			v-11.2H1248.2z"/>
	</g>
	<g>
		<path class="st0" d="M385.2,614.8L250,750l135.2,135.3L520.5,750L385.2,614.8z M258.2,750l127.1-127.1L512.3,750L385.2,877.1
			L258.2,750z"/>
	</g>
</g>
</svg>
